<?xml version="1.0" encoding="UTF-8"?>
<svg width="382px" height="382px" viewBox="0 0 382 382" version="1.1" xmlns="http://www.w3.org/2000/svg" xmlns:xlink="http://www.w3.org/1999/xlink">
    <!-- Generator: Sketch 52.6 (67491) - http://www.bohemiancoding.com/sketch -->
    <title>Artboard Copy 7</title>
    <desc>Created with Sketch.</desc>
    <g id="Artboard-Copy-7" stroke="none" stroke-width="1" fill="none" fill-rule="evenodd">
        <circle id="Oval" fill="#000000" cx="191" cy="191" r="191"></circle>
        <g id="logo" transform="translate(51.245003, 65.105003)">
            <ellipse id="Oval-Copy-2" stroke="#FF0D3A" stroke-width="28.1513184" transform="translate(139.013700, 125.755722) rotate(-240.000000) translate(-139.013700, -125.755722) " cx="139.0137" cy="125.755722" rx="68.6257833" ry="120.825824"></ellipse>
            <ellipse id="Oval-Copy" stroke="#0099FF" stroke-width="28.1513184" transform="translate(139.013700, 125.755722) rotate(-305.000000) translate(-139.013700, -125.755722) " cx="139.0137" cy="125.755722" rx="68.6691312" ry="120.750243"></ellipse>
            <ellipse id="Oval-Copy-3" stroke="#00EF40" stroke-width="28.1513184" cx="139.0137" cy="125.755722" rx="69.0339435" ry="120.107553"></ellipse>
            <path d="M74.7724637,248.814769 C112.696547,248.673109 143.641482,194.496671 143.889911,127.808307" id="Oval-Copy-4" stroke="#0099FF" stroke-width="28.1513184" transform="translate(109.331187, 188.311538) rotate(-305.000000) translate(-109.331187, -188.311538) "></path>
            <path d="M203.254936,2.69667442 C165.330853,2.83833438 134.385918,57.0147729 134.137488,123.703137" id="Oval-Copy-7" stroke="#0099FF" stroke-width="28.1513184" transform="translate(168.696212, 63.199906) rotate(-305.000000) translate(-168.696212, -63.199906) "></path>
            <path d="M208.58675,246.032511 C208.357796,179.302381 177.447955,125.101088 139.547688,124.970533" id="Oval-Copy-6" stroke="#FF0D3A" stroke-width="28.1513184" transform="translate(174.067219, 185.501522) rotate(-240.000000) translate(-174.067219, -185.501522) "></path>
            <path d="M138.479711,126.54091 C138.250757,59.8107807 107.340917,5.60948724 69.4406496,5.47893272" id="Oval-Copy-8" stroke="#FF0D3A" stroke-width="28.1513184" transform="translate(103.960180, 66.009921) scale(-1, -1) rotate(-240.000000) translate(-103.960180, -66.009921) "></path>
            <ellipse id="Oval" fill="#FFC139" cx="139.0137" cy="125.755722" rx="31.0652746" ry="30.8847994"></ellipse>
            <path d="" id="Path-2" stroke="#9E9E9E" stroke-width="1.15499997"></path>
        </g>
    </g>
</svg>